<mxfile host="Electron" modified="2024-06-10T11:18:02.612Z" agent="Mozilla/5.0 (Macintosh; Intel Mac OS X 10_15_7) AppleWebKit/537.36 (KHTML, like Gecko) draw.io/24.1.0 Chrome/120.0.6099.109 Electron/28.1.0 Safari/537.36" etag="1jQTt9bZpkw5haR1_IxJ" version="24.1.0" type="device">
  <diagram name="第 1 页" id="JGTNSw7YOtRR2n-2OMZs">
    <mxGraphModel dx="2562" dy="1384" grid="1" gridSize="10" guides="1" tooltips="1" connect="1" arrows="1" fold="1" page="1" pageScale="1" pageWidth="827" pageHeight="1169" math="0" shadow="0">
      <root>
        <mxCell id="0" />
        <mxCell id="1" parent="0" />
        <mxCell id="DDGEUJCVJTAiT2eQpah1-109" value="" style="rounded=0;whiteSpace=wrap;html=1;dashed=1;fontColor=default;fontFamily=Garamond;fontSize=18;" vertex="1" parent="1">
          <mxGeometry x="104" y="159" width="459.5" height="160" as="geometry" />
        </mxCell>
        <mxCell id="DDGEUJCVJTAiT2eQpah1-105" value="&lt;span style=&quot;font-size: 18px; white-space: pre; background-color: rgb(255, 255, 255);&quot;&gt;decide_to_generate&lt;/span&gt;" style="shape=process;whiteSpace=wrap;html=1;backgroundOutline=1;direction=south;fontFamily=Garamond;fontSize=18;fontColor=#004C99;labelBackgroundColor=none;fontStyle=1;" vertex="1" parent="1">
          <mxGeometry x="364.5" y="170" width="190" height="120" as="geometry" />
        </mxCell>
        <mxCell id="DDGEUJCVJTAiT2eQpah1-88" value="" style="rounded=0;whiteSpace=wrap;html=1;dashed=1;fontColor=default;fontFamily=Garamond;fontSize=18;" vertex="1" parent="1">
          <mxGeometry x="309" y="680" width="552" height="160" as="geometry" />
        </mxCell>
        <mxCell id="DDGEUJCVJTAiT2eQpah1-64" value="&lt;div style=&quot;background-color: rgb(255, 255, 255); font-size: 18px; line-height: 21px; white-space-collapse: preserve;&quot;&gt;&lt;span style=&quot;font-size: 18px;&quot;&gt;better&lt;/span&gt;&lt;/div&gt;&lt;div style=&quot;background-color: rgb(255, 255, 255); font-size: 18px; line-height: 21px; white-space-collapse: preserve;&quot;&gt;&lt;span style=&quot;font-size: 18px;&quot;&gt;question&lt;/span&gt;&lt;/div&gt;" style="text;html=1;align=center;verticalAlign=middle;resizable=0;points=[];autosize=1;strokeColor=none;fillColor=none;fontFamily=Garamond;fontSize=18;labelBackgroundColor=none;fontColor=default;fontStyle=0;" vertex="1" parent="1">
          <mxGeometry x="399" y="760" width="90" height="60" as="geometry" />
        </mxCell>
        <mxCell id="DDGEUJCVJTAiT2eQpah1-95" value="" style="rounded=0;whiteSpace=wrap;html=1;dashed=1;fontColor=default;fontFamily=Garamond;fontSize=18;" vertex="1" parent="1">
          <mxGeometry x="879" y="679" width="330" height="152" as="geometry" />
        </mxCell>
        <mxCell id="DDGEUJCVJTAiT2eQpah1-85" value="" style="rounded=0;whiteSpace=wrap;html=1;dashed=1;fontColor=default;fontFamily=Garamond;fontSize=18;" vertex="1" parent="1">
          <mxGeometry x="-258" y="680" width="552" height="160" as="geometry" />
        </mxCell>
        <mxCell id="DDGEUJCVJTAiT2eQpah1-83" value="" style="rounded=0;whiteSpace=wrap;html=1;dashed=1;fontColor=default;fontFamily=Garamond;fontSize=18;" vertex="1" parent="1">
          <mxGeometry x="580" y="160" width="572" height="160" as="geometry" />
        </mxCell>
        <mxCell id="DDGEUJCVJTAiT2eQpah1-75" value="" style="rounded=0;whiteSpace=wrap;html=1;dashed=1;fontFamily=Garamond;fontSize=18;labelBackgroundColor=none;fontColor=default;fontStyle=0;" vertex="1" parent="1">
          <mxGeometry x="-253" y="159" width="340" height="350" as="geometry" />
        </mxCell>
        <mxCell id="DDGEUJCVJTAiT2eQpah1-49" value="&lt;div style=&quot;line-height: 21px; white-space: pre; font-size: 18px;&quot;&gt;&lt;div style=&quot;line-height: 21px; font-size: 18px;&quot;&gt;&lt;div style=&quot;line-height: 21px; font-size: 18px;&quot;&gt;&lt;span style=&quot;font-size: 18px;&quot;&gt;rag_chain&lt;/span&gt;&lt;/div&gt;&lt;/div&gt;&lt;/div&gt;" style="shape=process;whiteSpace=wrap;html=1;backgroundOutline=1;direction=south;fontFamily=Garamond;fontSize=18;fontColor=#004C99;verticalAlign=top;spacingTop=9;labelBackgroundColor=none;fontStyle=1;" vertex="1" parent="1">
          <mxGeometry x="806" y="180" width="336" height="120" as="geometry" />
        </mxCell>
        <mxCell id="DDGEUJCVJTAiT2eQpah1-59" value="&lt;div style=&quot;font-size: 18px; line-height: 21px; white-space: pre;&quot;&gt;&lt;span style=&quot;font-size: 18px;&quot;&gt;prompt&lt;/span&gt;&lt;/div&gt;" style="rounded=1;whiteSpace=wrap;html=1;verticalAlign=top;fontFamily=Garamond;fontSize=18;labelBackgroundColor=none;fontColor=default;fontStyle=0;strokeColor=#597A46;" vertex="1" parent="1">
          <mxGeometry x="827" y="220" width="150" height="50" as="geometry" />
        </mxCell>
        <mxCell id="DDGEUJCVJTAiT2eQpah1-47" value="&lt;div style=&quot;font-size: 18px; line-height: 21px; white-space-collapse: preserve;&quot;&gt;&lt;span style=&quot;font-size: 18px;&quot;&gt;binary score &lt;/span&gt;&lt;/div&gt;&lt;div style=&quot;font-size: 18px; line-height: 21px; white-space-collapse: preserve;&quot;&gt;&lt;span style=&quot;font-size: 18px;&quot;&gt;&#39;yes&#39; or &#39;no&#39;&lt;/span&gt;&lt;/div&gt;" style="text;html=1;align=center;verticalAlign=middle;resizable=0;points=[];autosize=1;strokeColor=none;fillColor=none;fontFamily=Garamond;fontSize=18;labelBackgroundColor=none;fontColor=default;fontStyle=0;" vertex="1" parent="1">
          <mxGeometry x="-173" y="760" width="130" height="60" as="geometry" />
        </mxCell>
        <mxCell id="DDGEUJCVJTAiT2eQpah1-48" style="edgeStyle=orthogonalEdgeStyle;rounded=0;orthogonalLoop=1;jettySize=auto;html=1;exitX=0.75;exitY=1;exitDx=0;exitDy=0;entryX=0.75;entryY=0;entryDx=0;entryDy=0;fontFamily=Garamond;fontSize=18;labelBackgroundColor=none;fontColor=default;fontStyle=0;" edge="1" parent="1" source="DDGEUJCVJTAiT2eQpah1-38" target="DDGEUJCVJTAiT2eQpah1-42">
          <mxGeometry relative="1" as="geometry" />
        </mxCell>
        <mxCell id="DDGEUJCVJTAiT2eQpah1-38" value="&lt;div style=&quot;line-height: 21px; white-space: pre; font-size: 18px;&quot;&gt;&lt;div style=&quot;line-height: 21px; font-size: 18px;&quot;&gt;&lt;span style=&quot;font-size: 18px;&quot;&gt;retrieval_grader&lt;/span&gt;&lt;/div&gt;&lt;/div&gt;" style="shape=process;whiteSpace=wrap;html=1;backgroundOutline=1;direction=south;fontFamily=Garamond;fontSize=18;fontColor=#004C99;verticalAlign=top;spacingTop=9;labelBackgroundColor=none;fontStyle=1;" vertex="1" parent="1">
          <mxGeometry x="-36" y="700" width="320" height="120" as="geometry" />
        </mxCell>
        <mxCell id="DDGEUJCVJTAiT2eQpah1-40" value="ollama" style="rounded=1;whiteSpace=wrap;html=1;verticalAlign=top;fontFamily=Garamond;fontSize=18;labelBackgroundColor=none;fontColor=#330066;fontStyle=0;strokeColor=#330066;" vertex="1" parent="1">
          <mxGeometry x="139" y="743" width="120" height="50" as="geometry" />
        </mxCell>
        <mxCell id="DDGEUJCVJTAiT2eQpah1-14" style="edgeStyle=orthogonalEdgeStyle;rounded=0;orthogonalLoop=1;jettySize=auto;html=1;exitX=1;exitY=0.5;exitDx=0;exitDy=0;entryX=0;entryY=0.5;entryDx=0;entryDy=0;fontSize=18;fontFamily=Garamond;labelBackgroundColor=none;fontColor=default;fontStyle=0;strokeWidth=2;strokeColor=#B5739D;" edge="1" parent="1" source="DDGEUJCVJTAiT2eQpah1-1" target="DDGEUJCVJTAiT2eQpah1-2">
          <mxGeometry relative="1" as="geometry" />
        </mxCell>
        <mxCell id="DDGEUJCVJTAiT2eQpah1-78" style="rounded=0;orthogonalLoop=1;jettySize=auto;html=1;exitX=0;exitY=0;exitDx=0;exitDy=0;entryX=1;entryY=0.5;entryDx=0;entryDy=0;endArrow=oval;endFill=1;fontFamily=Garamond;fontSize=18;labelBackgroundColor=none;fontColor=default;fontStyle=0;dashed=1;" edge="1" parent="1" source="DDGEUJCVJTAiT2eQpah1-1" target="DDGEUJCVJTAiT2eQpah1-75">
          <mxGeometry relative="1" as="geometry" />
        </mxCell>
        <mxCell id="DDGEUJCVJTAiT2eQpah1-1" value="" style="ellipse;whiteSpace=wrap;html=1;aspect=fixed;fontSize=18;fontFamily=Garamond;labelBackgroundColor=none;fontColor=default;fontStyle=0;strokeWidth=2;strokeColor=#FF0080;" vertex="1" parent="1">
          <mxGeometry x="140" y="450" width="60" height="60" as="geometry" />
        </mxCell>
        <mxCell id="DDGEUJCVJTAiT2eQpah1-17" style="edgeStyle=orthogonalEdgeStyle;rounded=0;orthogonalLoop=1;jettySize=auto;html=1;exitX=1;exitY=0.5;exitDx=0;exitDy=0;entryX=0;entryY=0.5;entryDx=0;entryDy=0;fontSize=18;fontFamily=Garamond;labelBackgroundColor=none;fontColor=default;fontStyle=0;strokeWidth=2;strokeColor=#B5739D;" edge="1" parent="1" source="DDGEUJCVJTAiT2eQpah1-2" target="DDGEUJCVJTAiT2eQpah1-16">
          <mxGeometry relative="1" as="geometry" />
        </mxCell>
        <mxCell id="DDGEUJCVJTAiT2eQpah1-86" style="rounded=0;orthogonalLoop=1;jettySize=auto;html=1;exitX=0;exitY=1;exitDx=0;exitDy=0;entryX=0.5;entryY=0;entryDx=0;entryDy=0;endArrow=oval;endFill=1;fontColor=default;fontFamily=Garamond;fontSize=18;dashed=1;" edge="1" parent="1" source="DDGEUJCVJTAiT2eQpah1-2" target="DDGEUJCVJTAiT2eQpah1-85">
          <mxGeometry relative="1" as="geometry" />
        </mxCell>
        <mxCell id="DDGEUJCVJTAiT2eQpah1-2" value="" style="ellipse;whiteSpace=wrap;html=1;aspect=fixed;fontSize=18;fontFamily=Garamond;labelBackgroundColor=none;fontColor=default;fontStyle=0;strokeWidth=2;strokeColor=#FF0080;" vertex="1" parent="1">
          <mxGeometry x="325" y="450" width="60" height="60" as="geometry" />
        </mxCell>
        <mxCell id="DDGEUJCVJTAiT2eQpah1-20" style="edgeStyle=orthogonalEdgeStyle;rounded=0;orthogonalLoop=1;jettySize=auto;html=1;exitX=1;exitY=0.5;exitDx=0;exitDy=0;entryX=0;entryY=0.5;entryDx=0;entryDy=0;fontSize=18;fontFamily=Garamond;labelBackgroundColor=none;fontColor=default;fontStyle=0;strokeWidth=2;strokeColor=#B5739D;" edge="1" parent="1" source="DDGEUJCVJTAiT2eQpah1-3" target="DDGEUJCVJTAiT2eQpah1-5">
          <mxGeometry relative="1" as="geometry" />
        </mxCell>
        <mxCell id="DDGEUJCVJTAiT2eQpah1-84" style="rounded=0;orthogonalLoop=1;jettySize=auto;html=1;exitX=0.5;exitY=0;exitDx=0;exitDy=0;entryX=0.5;entryY=1;entryDx=0;entryDy=0;endArrow=oval;endFill=1;fontColor=default;fontFamily=Garamond;fontSize=18;dashed=1;" edge="1" parent="1" source="DDGEUJCVJTAiT2eQpah1-3" target="DDGEUJCVJTAiT2eQpah1-83">
          <mxGeometry relative="1" as="geometry">
            <mxPoint x="1156.5" y="193" as="sourcePoint" />
          </mxGeometry>
        </mxCell>
        <mxCell id="DDGEUJCVJTAiT2eQpah1-3" value="" style="ellipse;whiteSpace=wrap;html=1;aspect=fixed;fontSize=18;fontFamily=Garamond;labelBackgroundColor=none;fontColor=default;fontStyle=0;strokeWidth=2;strokeColor=#FF0080;" vertex="1" parent="1">
          <mxGeometry x="820" y="370" width="60" height="60" as="geometry" />
        </mxCell>
        <mxCell id="DDGEUJCVJTAiT2eQpah1-89" style="rounded=0;orthogonalLoop=1;jettySize=auto;html=1;exitX=0;exitY=1;exitDx=0;exitDy=0;entryX=0.5;entryY=0;entryDx=0;entryDy=0;endArrow=oval;endFill=1;fontColor=default;fontFamily=Garamond;fontSize=18;dashed=1;" edge="1" parent="1" source="DDGEUJCVJTAiT2eQpah1-4" target="DDGEUJCVJTAiT2eQpah1-88">
          <mxGeometry relative="1" as="geometry" />
        </mxCell>
        <mxCell id="DDGEUJCVJTAiT2eQpah1-97" style="edgeStyle=orthogonalEdgeStyle;rounded=0;orthogonalLoop=1;jettySize=auto;html=1;exitX=1;exitY=0.5;exitDx=0;exitDy=0;entryX=0;entryY=0.5;entryDx=0;entryDy=0;fontColor=default;fontFamily=Garamond;fontSize=18;strokeWidth=2;strokeColor=#B5739D;" edge="1" parent="1" source="DDGEUJCVJTAiT2eQpah1-4" target="DDGEUJCVJTAiT2eQpah1-6">
          <mxGeometry relative="1" as="geometry" />
        </mxCell>
        <mxCell id="DDGEUJCVJTAiT2eQpah1-4" value="" style="ellipse;whiteSpace=wrap;html=1;aspect=fixed;fontSize=18;fontFamily=Garamond;labelBackgroundColor=none;fontColor=default;fontStyle=0;strokeWidth=2;strokeColor=#FF0080;" vertex="1" parent="1">
          <mxGeometry x="645" y="532.5" width="60" height="60" as="geometry" />
        </mxCell>
        <mxCell id="DDGEUJCVJTAiT2eQpah1-5" value="" style="ellipse;whiteSpace=wrap;html=1;aspect=fixed;fontSize=18;fontFamily=Garamond;labelBackgroundColor=none;fontColor=default;fontStyle=0;strokeWidth=2;strokeColor=#FF0080;" vertex="1" parent="1">
          <mxGeometry x="990" y="370" width="60" height="60" as="geometry" />
        </mxCell>
        <mxCell id="DDGEUJCVJTAiT2eQpah1-96" style="rounded=0;orthogonalLoop=1;jettySize=auto;html=1;exitX=1;exitY=1;exitDx=0;exitDy=0;entryX=0.5;entryY=0;entryDx=0;entryDy=0;endArrow=oval;endFill=1;fontColor=default;fontFamily=Garamond;fontSize=18;dashed=1;" edge="1" parent="1" source="DDGEUJCVJTAiT2eQpah1-6" target="DDGEUJCVJTAiT2eQpah1-95">
          <mxGeometry relative="1" as="geometry" />
        </mxCell>
        <mxCell id="DDGEUJCVJTAiT2eQpah1-98" style="edgeStyle=orthogonalEdgeStyle;rounded=0;orthogonalLoop=1;jettySize=auto;html=1;exitX=0.5;exitY=0;exitDx=0;exitDy=0;fontColor=default;fontFamily=Garamond;fontSize=18;strokeWidth=2;strokeColor=#B5739D;" edge="1" parent="1" source="DDGEUJCVJTAiT2eQpah1-6" target="DDGEUJCVJTAiT2eQpah1-3">
          <mxGeometry relative="1" as="geometry" />
        </mxCell>
        <mxCell id="DDGEUJCVJTAiT2eQpah1-6" value="" style="ellipse;whiteSpace=wrap;html=1;aspect=fixed;fontSize=18;fontFamily=Garamond;labelBackgroundColor=none;fontColor=default;fontStyle=0;strokeWidth=2;strokeColor=#FF0080;" vertex="1" parent="1">
          <mxGeometry x="820" y="532.5" width="60" height="60" as="geometry" />
        </mxCell>
        <mxCell id="DDGEUJCVJTAiT2eQpah1-7" value="&lt;div style=&quot;font-size: 18px; line-height: 21px; white-space-collapse: preserve;&quot;&gt;&lt;span style=&quot;font-size: 18px;&quot;&gt;retrieve&lt;/span&gt;&lt;/div&gt;" style="text;html=1;align=center;verticalAlign=middle;resizable=0;points=[];autosize=1;strokeColor=none;fillColor=none;fontSize=18;fontFamily=Garamond;fontColor=#FF0080;labelBackgroundColor=none;fontStyle=1;" vertex="1" parent="1">
          <mxGeometry x="125" y="510" width="90" height="30" as="geometry" />
        </mxCell>
        <mxCell id="DDGEUJCVJTAiT2eQpah1-8" value="&lt;div style=&quot;font-size: 18px; line-height: 21px; white-space-collapse: preserve;&quot;&gt;&lt;span style=&quot;font-size: 18px;&quot;&gt;grade_documents&lt;/span&gt;&lt;/div&gt;" style="text;html=1;align=center;verticalAlign=middle;resizable=0;points=[];autosize=1;strokeColor=none;fillColor=none;fontSize=18;fontFamily=Garamond;fontColor=#FF0080;labelBackgroundColor=none;fontStyle=1;" vertex="1" parent="1">
          <mxGeometry x="319" y="512.5" width="170" height="30" as="geometry" />
        </mxCell>
        <mxCell id="DDGEUJCVJTAiT2eQpah1-9" value="&lt;div style=&quot;font-size: 18px; line-height: 21px; white-space-collapse: preserve;&quot;&gt;&lt;span style=&quot;font-size: 18px;&quot;&gt;generate&lt;/span&gt;&lt;/div&gt;" style="text;html=1;align=center;verticalAlign=middle;resizable=0;points=[];autosize=1;strokeColor=none;fillColor=none;fontSize=18;fontFamily=Garamond;fontColor=#FF0080;labelBackgroundColor=none;fontStyle=1;" vertex="1" parent="1">
          <mxGeometry x="861" y="420" width="100" height="30" as="geometry" />
        </mxCell>
        <mxCell id="DDGEUJCVJTAiT2eQpah1-10" value="&lt;div style=&quot;font-size: 18px; line-height: 21px; white-space-collapse: preserve;&quot;&gt;&lt;span style=&quot;font-size: 18px;&quot;&gt;transform_query&lt;/span&gt;&lt;/div&gt;" style="text;html=1;align=center;verticalAlign=middle;resizable=0;points=[];autosize=1;strokeColor=none;fillColor=none;fontSize=18;fontFamily=Garamond;fontColor=#FF0080;labelBackgroundColor=none;fontStyle=1;" vertex="1" parent="1">
          <mxGeometry x="485" y="580" width="160" height="30" as="geometry" />
        </mxCell>
        <mxCell id="DDGEUJCVJTAiT2eQpah1-11" value="&lt;div style=&quot;font-size: 18px; line-height: 21px; white-space-collapse: preserve;&quot;&gt;&lt;span style=&quot;font-size: 18px;&quot;&gt;web_search&lt;/span&gt;&lt;/div&gt;" style="text;html=1;align=center;verticalAlign=middle;resizable=0;points=[];autosize=1;strokeColor=none;fillColor=none;fontSize=18;fontFamily=Garamond;fontColor=#FF0080;labelBackgroundColor=none;fontStyle=1;" vertex="1" parent="1">
          <mxGeometry x="721" y="580" width="120" height="30" as="geometry" />
        </mxCell>
        <mxCell id="DDGEUJCVJTAiT2eQpah1-12" value="&lt;div style=&quot;font-size: 18px; line-height: 21px; white-space-collapse: preserve;&quot;&gt;&lt;span style=&quot;font-size: 18px;&quot;&gt;END&lt;/span&gt;&lt;/div&gt;" style="text;html=1;align=center;verticalAlign=middle;resizable=0;points=[];autosize=1;strokeColor=none;fillColor=none;fontSize=18;fontFamily=Garamond;fontColor=#FF0080;labelBackgroundColor=none;fontStyle=1;" vertex="1" parent="1">
          <mxGeometry x="990" y="430" width="60" height="30" as="geometry" />
        </mxCell>
        <mxCell id="DDGEUJCVJTAiT2eQpah1-13" value="&lt;div style=&quot;font-size: 18px; line-height: 21px; white-space-collapse: preserve;&quot;&gt;&lt;br style=&quot;font-size: 18px;&quot;&gt;&lt;/div&gt;" style="text;html=1;align=center;verticalAlign=middle;resizable=0;points=[];autosize=1;strokeColor=none;fillColor=none;fontSize=18;fontFamily=Garamond;labelBackgroundColor=none;fontColor=default;fontStyle=0;" vertex="1" parent="1">
          <mxGeometry x="-3" y="499" width="20" height="30" as="geometry" />
        </mxCell>
        <mxCell id="DDGEUJCVJTAiT2eQpah1-15" value="&lt;div style=&quot;font-size: 18px; line-height: 21px; white-space-collapse: preserve;&quot;&gt;&lt;span style=&quot;font-size: 18px;&quot;&gt;decide_to_generate&lt;/span&gt;&lt;/div&gt;" style="text;html=1;align=center;verticalAlign=middle;resizable=0;points=[];autosize=1;strokeColor=none;fillColor=none;fontSize=18;fontFamily=Garamond;labelBackgroundColor=none;fontColor=#FF0080;fontStyle=1;" vertex="1" parent="1">
          <mxGeometry x="554.5" y="465" width="190" height="30" as="geometry" />
        </mxCell>
        <mxCell id="DDGEUJCVJTAiT2eQpah1-18" style="edgeStyle=orthogonalEdgeStyle;rounded=0;orthogonalLoop=1;jettySize=auto;html=1;exitX=0.5;exitY=0;exitDx=0;exitDy=0;entryX=0;entryY=0.5;entryDx=0;entryDy=0;fontSize=18;fontFamily=Garamond;labelBackgroundColor=none;fontColor=default;fontStyle=0;strokeWidth=2;strokeColor=#B5739D;" edge="1" parent="1" source="DDGEUJCVJTAiT2eQpah1-16" target="DDGEUJCVJTAiT2eQpah1-3">
          <mxGeometry relative="1" as="geometry" />
        </mxCell>
        <mxCell id="DDGEUJCVJTAiT2eQpah1-19" style="edgeStyle=orthogonalEdgeStyle;rounded=0;orthogonalLoop=1;jettySize=auto;html=1;exitX=0.5;exitY=1;exitDx=0;exitDy=0;entryX=0;entryY=0.5;entryDx=0;entryDy=0;fontSize=18;fontFamily=Garamond;labelBackgroundColor=none;fontColor=default;fontStyle=0;strokeWidth=2;strokeColor=#B5739D;" edge="1" parent="1" source="DDGEUJCVJTAiT2eQpah1-16" target="DDGEUJCVJTAiT2eQpah1-4">
          <mxGeometry relative="1" as="geometry" />
        </mxCell>
        <mxCell id="DDGEUJCVJTAiT2eQpah1-110" style="rounded=0;orthogonalLoop=1;jettySize=auto;html=1;exitX=0;exitY=0;exitDx=0;exitDy=0;entryX=0.75;entryY=1;entryDx=0;entryDy=0;endArrow=oval;endFill=1;fontColor=default;fontFamily=Garamond;fontSize=18;dashed=1;" edge="1" parent="1" source="DDGEUJCVJTAiT2eQpah1-16" target="DDGEUJCVJTAiT2eQpah1-109">
          <mxGeometry relative="1" as="geometry" />
        </mxCell>
        <mxCell id="DDGEUJCVJTAiT2eQpah1-16" value="" style="rhombus;whiteSpace=wrap;html=1;rounded=1;aspect=fixed;fontSize=18;fontFamily=Garamond;labelBackgroundColor=none;fontColor=default;fontStyle=0;strokeWidth=2;strokeColor=#FF0080;" vertex="1" parent="1">
          <mxGeometry x="489" y="447.5" width="65" height="65" as="geometry" />
        </mxCell>
        <mxCell id="DDGEUJCVJTAiT2eQpah1-21" value="&lt;div style=&quot;font-size: 18px; line-height: 21px; white-space-collapse: preserve;&quot;&gt;&lt;span style=&quot;font-size: 18px;&quot;&gt;question&lt;/span&gt;&lt;/div&gt;" style="text;html=1;align=center;verticalAlign=middle;resizable=0;points=[];autosize=1;strokeColor=none;fillColor=none;fontFamily=Garamond;fontSize=18;fontColor=default;labelBackgroundColor=none;fontStyle=0;" vertex="1" parent="1">
          <mxGeometry x="-148" y="184" width="90" height="30" as="geometry" />
        </mxCell>
        <mxCell id="DDGEUJCVJTAiT2eQpah1-22" value="&lt;div style=&quot;font-size: 18px; line-height: 21px; white-space-collapse: preserve;&quot;&gt;&lt;span style=&quot;font-size: 18px;&quot;&gt;documents&lt;/span&gt;&lt;/div&gt;" style="text;html=1;align=center;verticalAlign=middle;resizable=0;points=[];autosize=1;strokeColor=none;fillColor=none;fontFamily=Garamond;fontSize=18;fontColor=default;labelBackgroundColor=none;fontStyle=0;" vertex="1" parent="1">
          <mxGeometry x="-163" y="274" width="120" height="30" as="geometry" />
        </mxCell>
        <mxCell id="DDGEUJCVJTAiT2eQpah1-26" style="edgeStyle=orthogonalEdgeStyle;rounded=0;orthogonalLoop=1;jettySize=auto;html=1;exitX=0.25;exitY=0;exitDx=0;exitDy=0;entryX=0.25;entryY=1;entryDx=0;entryDy=0;fontFamily=Garamond;fontSize=18;fontColor=default;labelBackgroundColor=none;fontStyle=0;" edge="1" parent="1" source="DDGEUJCVJTAiT2eQpah1-23" target="DDGEUJCVJTAiT2eQpah1-27">
          <mxGeometry relative="1" as="geometry">
            <mxPoint x="-63" y="209.00000000000023" as="targetPoint" />
          </mxGeometry>
        </mxCell>
        <mxCell id="DDGEUJCVJTAiT2eQpah1-23" value="stat" style="shape=process;whiteSpace=wrap;html=1;backgroundOutline=1;direction=south;fontFamily=Garamond;fontSize=18;fontColor=#003366;labelBackgroundColor=none;fontStyle=0;strokeColor=#003366;" vertex="1" parent="1">
          <mxGeometry x="-238" y="184" width="60" height="120" as="geometry" />
        </mxCell>
        <mxCell id="DDGEUJCVJTAiT2eQpah1-29" style="edgeStyle=orthogonalEdgeStyle;rounded=0;orthogonalLoop=1;jettySize=auto;html=1;exitX=0.75;exitY=1;exitDx=0;exitDy=0;entryX=0.75;entryY=0;entryDx=0;entryDy=0;fontFamily=Garamond;fontSize=18;fontColor=default;labelBackgroundColor=none;fontStyle=0;" edge="1" parent="1" source="DDGEUJCVJTAiT2eQpah1-27" target="DDGEUJCVJTAiT2eQpah1-23">
          <mxGeometry relative="1" as="geometry" />
        </mxCell>
        <mxCell id="DDGEUJCVJTAiT2eQpah1-27" value="&lt;div style=&quot;line-height: 21px; white-space: pre; font-size: 18px;&quot;&gt;&lt;span style=&quot;font-size: 18px;&quot;&gt;retriever&lt;/span&gt;&lt;/div&gt;" style="shape=process;whiteSpace=wrap;html=1;backgroundOutline=1;direction=south;fontFamily=Garamond;fontSize=18;fontColor=#004C99;labelBackgroundColor=none;fontStyle=1;" vertex="1" parent="1">
          <mxGeometry x="-25.5" y="184" width="95" height="120" as="geometry" />
        </mxCell>
        <mxCell id="DDGEUJCVJTAiT2eQpah1-30" value="DOC" style="shape=note;whiteSpace=wrap;html=1;backgroundOutline=1;darkOpacity=0.05;verticalAlign=middle;fontFamily=Garamond;fontSize=15;spacingTop=10;spacingBottom=3;flipH=1;labelBackgroundColor=none;fontColor=default;fontStyle=0;" vertex="1" parent="1">
          <mxGeometry x="-241" y="432" width="70" height="70" as="geometry" />
        </mxCell>
        <mxCell id="DDGEUJCVJTAiT2eQpah1-31" value="TOKEN" style="shape=card;whiteSpace=wrap;html=1;verticalAlign=middle;fontFamily=Garamond;fontSize=15;spacingTop=10;spacingBottom=3;direction=east;labelBackgroundColor=none;fontColor=default;fontStyle=0;" vertex="1" parent="1">
          <mxGeometry x="-13" y="417" width="70" height="70" as="geometry" />
        </mxCell>
        <mxCell id="DDGEUJCVJTAiT2eQpah1-36" style="edgeStyle=orthogonalEdgeStyle;rounded=0;orthogonalLoop=1;jettySize=auto;html=1;exitX=0.5;exitY=0;exitDx=0;exitDy=0;exitPerimeter=0;entryX=1;entryY=0.5;entryDx=0;entryDy=0;fontSize=18;fontFamily=Garamond;labelBackgroundColor=none;fontColor=default;fontStyle=0;" edge="1" parent="1" source="DDGEUJCVJTAiT2eQpah1-32" target="DDGEUJCVJTAiT2eQpah1-27">
          <mxGeometry relative="1" as="geometry" />
        </mxCell>
        <mxCell id="DDGEUJCVJTAiT2eQpah1-32" value="VECTOR" style="shape=cylinder3;whiteSpace=wrap;html=1;boundedLbl=1;backgroundOutline=1;size=15;verticalAlign=middle;fontFamily=Garamond;fontSize=15;spacingTop=6;spacingBottom=5;labelBackgroundColor=none;fontColor=default;fontStyle=0;" vertex="1" parent="1">
          <mxGeometry x="-13" y="322" width="70" height="70" as="geometry" />
        </mxCell>
        <mxCell id="DDGEUJCVJTAiT2eQpah1-33" style="edgeStyle=orthogonalEdgeStyle;rounded=0;orthogonalLoop=1;jettySize=auto;html=1;entryX=0;entryY=0;entryDx=0;entryDy=50;entryPerimeter=0;fontSize=18;fontFamily=Garamond;labelBackgroundColor=none;fontColor=default;fontStyle=0;" edge="1" parent="1" source="DDGEUJCVJTAiT2eQpah1-30" target="DDGEUJCVJTAiT2eQpah1-31">
          <mxGeometry relative="1" as="geometry">
            <Array as="points" />
          </mxGeometry>
        </mxCell>
        <mxCell id="DDGEUJCVJTAiT2eQpah1-35" value="GPT4All&amp;nbsp;&lt;div style=&quot;font-size: 18px;&quot;&gt;Embedding&lt;/div&gt;" style="text;html=1;align=right;verticalAlign=middle;resizable=0;points=[];autosize=1;strokeColor=none;fillColor=none;fontSize=18;fontFamily=Garamond;labelBackgroundColor=none;fontColor=default;fontStyle=0;" vertex="1" parent="1">
          <mxGeometry x="-163" y="374" width="120" height="60" as="geometry" />
        </mxCell>
        <mxCell id="DDGEUJCVJTAiT2eQpah1-39" value="&lt;div style=&quot;font-size: 18px; line-height: 21px; white-space: pre;&quot;&gt;&lt;span style=&quot;font-size: 18px;&quot;&gt;mistral&lt;/span&gt;&lt;/div&gt;" style="rounded=1;whiteSpace=wrap;html=1;fontFamily=Garamond;fontSize=18;labelBackgroundColor=none;fontColor=#330066;fontStyle=0;strokeColor=#330066;" vertex="1" parent="1">
          <mxGeometry x="158" y="773" width="81" height="30" as="geometry" />
        </mxCell>
        <mxCell id="DDGEUJCVJTAiT2eQpah1-41" value="&lt;div style=&quot;font-size: 18px; line-height: 21px; white-space: pre;&quot;&gt;&lt;span style=&quot;font-size: 18px;&quot;&gt;prompt&lt;/span&gt;&lt;/div&gt;" style="rounded=1;whiteSpace=wrap;html=1;verticalAlign=top;fontFamily=Garamond;fontSize=18;labelBackgroundColor=none;fontColor=default;fontStyle=0;strokeColor=#597A46;" vertex="1" parent="1">
          <mxGeometry x="-6" y="743" width="110" height="50" as="geometry" />
        </mxCell>
        <mxCell id="DDGEUJCVJTAiT2eQpah1-43" style="edgeStyle=orthogonalEdgeStyle;rounded=0;orthogonalLoop=1;jettySize=auto;html=1;exitX=0.25;exitY=0;exitDx=0;exitDy=0;entryX=0.25;entryY=1;entryDx=0;entryDy=0;fontFamily=Garamond;fontSize=18;labelBackgroundColor=none;fontColor=default;fontStyle=0;" edge="1" parent="1" source="DDGEUJCVJTAiT2eQpah1-42" target="DDGEUJCVJTAiT2eQpah1-38">
          <mxGeometry relative="1" as="geometry" />
        </mxCell>
        <mxCell id="DDGEUJCVJTAiT2eQpah1-42" value="stat" style="shape=process;whiteSpace=wrap;html=1;backgroundOutline=1;direction=south;fontFamily=Garamond;fontSize=18;fontColor=#003366;labelBackgroundColor=none;fontStyle=0;strokeColor=#003366;" vertex="1" parent="1">
          <mxGeometry x="-246" y="700" width="60" height="120" as="geometry" />
        </mxCell>
        <mxCell id="DDGEUJCVJTAiT2eQpah1-44" value="&lt;div style=&quot;font-size: 18px; line-height: 21px; white-space-collapse: preserve;&quot;&gt;&lt;span style=&quot;font-size: 18px;&quot;&gt;question&lt;/span&gt;&lt;/div&gt;" style="text;html=1;align=center;verticalAlign=middle;resizable=0;points=[];autosize=1;strokeColor=none;fillColor=none;fontFamily=Garamond;fontSize=18;fontColor=default;labelBackgroundColor=none;fontStyle=0;" vertex="1" parent="1">
          <mxGeometry x="-153" y="700" width="90" height="30" as="geometry" />
        </mxCell>
        <mxCell id="DDGEUJCVJTAiT2eQpah1-45" value="&lt;div style=&quot;font-size: 18px; line-height: 21px; white-space-collapse: preserve;&quot;&gt;&lt;span style=&quot;font-size: 18px;&quot;&gt;documents&lt;/span&gt;&lt;/div&gt;" style="text;html=1;align=center;verticalAlign=middle;resizable=0;points=[];autosize=1;strokeColor=none;fillColor=none;fontFamily=Garamond;fontSize=18;fontColor=default;labelBackgroundColor=none;fontStyle=0;" vertex="1" parent="1">
          <mxGeometry x="-168" y="730" width="120" height="30" as="geometry" />
        </mxCell>
        <mxCell id="DDGEUJCVJTAiT2eQpah1-46" value="&lt;div style=&quot;font-size: 18px; line-height: 21px; white-space-collapse: preserve;&quot;&gt;&lt;span style=&quot;font-size: 18px;&quot;&gt;grader&lt;/span&gt;&lt;/div&gt;" style="text;html=1;align=center;verticalAlign=middle;resizable=0;points=[];autosize=1;strokeColor=none;fillColor=none;fontFamily=Garamond;fontSize=18;labelBackgroundColor=#B9E0A5;fontColor=default;fontStyle=2;" vertex="1" parent="1">
          <mxGeometry x="9" y="775" width="80" height="30" as="geometry" />
        </mxCell>
        <mxCell id="DDGEUJCVJTAiT2eQpah1-53" style="edgeStyle=orthogonalEdgeStyle;rounded=0;orthogonalLoop=1;jettySize=auto;html=1;exitX=0.75;exitY=1;exitDx=0;exitDy=0;entryX=0.75;entryY=0;entryDx=0;entryDy=0;fontFamily=Garamond;fontSize=18;labelBackgroundColor=none;fontColor=default;fontStyle=0;" edge="1" parent="1" source="DDGEUJCVJTAiT2eQpah1-49" target="DDGEUJCVJTAiT2eQpah1-51">
          <mxGeometry relative="1" as="geometry" />
        </mxCell>
        <mxCell id="DDGEUJCVJTAiT2eQpah1-50" value="&lt;span style=&quot;font-size: 18px; white-space-collapse: preserve;&quot;&gt;generation&lt;/span&gt;" style="text;html=1;align=center;verticalAlign=middle;resizable=0;points=[];autosize=1;strokeColor=none;fillColor=none;fontFamily=Garamond;fontSize=18;labelBackgroundColor=none;fontColor=default;fontStyle=0;" vertex="1" parent="1">
          <mxGeometry x="679" y="265" width="110" height="40" as="geometry" />
        </mxCell>
        <mxCell id="DDGEUJCVJTAiT2eQpah1-52" style="edgeStyle=orthogonalEdgeStyle;rounded=0;orthogonalLoop=1;jettySize=auto;html=1;exitX=0.25;exitY=0;exitDx=0;exitDy=0;entryX=0.25;entryY=1;entryDx=0;entryDy=0;fontFamily=Garamond;fontSize=18;labelBackgroundColor=none;fontColor=default;fontStyle=0;" edge="1" parent="1" source="DDGEUJCVJTAiT2eQpah1-51" target="DDGEUJCVJTAiT2eQpah1-49">
          <mxGeometry relative="1" as="geometry" />
        </mxCell>
        <mxCell id="DDGEUJCVJTAiT2eQpah1-51" value="stat" style="shape=process;whiteSpace=wrap;html=1;backgroundOutline=1;direction=south;fontFamily=Garamond;fontSize=18;fontColor=#003366;labelBackgroundColor=none;fontStyle=0;strokeColor=#003366;" vertex="1" parent="1">
          <mxGeometry x="596" y="180" width="60" height="120" as="geometry" />
        </mxCell>
        <mxCell id="DDGEUJCVJTAiT2eQpah1-54" value="&lt;div style=&quot;font-size: 18px; line-height: 21px; white-space-collapse: preserve;&quot;&gt;&lt;span style=&quot;font-size: 18px;&quot;&gt;question&lt;/span&gt;&lt;/div&gt;" style="text;html=1;align=center;verticalAlign=middle;resizable=0;points=[];autosize=1;strokeColor=none;fillColor=none;fontFamily=Garamond;fontSize=18;fontColor=default;labelBackgroundColor=none;fontStyle=0;" vertex="1" parent="1">
          <mxGeometry x="696" y="180" width="90" height="30" as="geometry" />
        </mxCell>
        <mxCell id="DDGEUJCVJTAiT2eQpah1-55" value="&lt;div style=&quot;font-size: 18px; line-height: 21px; white-space-collapse: preserve;&quot;&gt;&lt;span style=&quot;font-size: 18px;&quot;&gt;documents&lt;/span&gt;&lt;/div&gt;" style="text;html=1;align=center;verticalAlign=middle;resizable=0;points=[];autosize=1;strokeColor=none;fillColor=none;fontFamily=Garamond;fontSize=18;fontColor=default;labelBackgroundColor=none;fontStyle=0;" vertex="1" parent="1">
          <mxGeometry x="681" y="210" width="120" height="30" as="geometry" />
        </mxCell>
        <mxCell id="DDGEUJCVJTAiT2eQpah1-56" value="&lt;div style=&quot;font-size: 18px; line-height: 21px; white-space-collapse: preserve;&quot;&gt;&lt;span style=&quot;font-size: 18px;&quot;&gt;rlm/rag-prompt&lt;/span&gt;&lt;/div&gt;" style="text;html=1;align=center;verticalAlign=middle;resizable=0;points=[];autosize=1;strokeColor=none;fillColor=none;fontFamily=Garamond;fontSize=18;labelBackgroundColor=#B9E0A5;fontColor=default;fontStyle=2;" vertex="1" parent="1">
          <mxGeometry x="822" y="253" width="160" height="30" as="geometry" />
        </mxCell>
        <mxCell id="DDGEUJCVJTAiT2eQpah1-57" value="ollama" style="rounded=1;whiteSpace=wrap;html=1;verticalAlign=top;fontFamily=Garamond;fontSize=18;labelBackgroundColor=none;fontColor=#330066;fontStyle=0;strokeColor=#330066;" vertex="1" parent="1">
          <mxGeometry x="1001" y="220" width="120" height="50" as="geometry" />
        </mxCell>
        <mxCell id="DDGEUJCVJTAiT2eQpah1-58" value="&lt;div style=&quot;font-size: 18px; line-height: 21px; white-space: pre;&quot;&gt;&lt;span style=&quot;font-size: 18px;&quot;&gt;mistral&lt;/span&gt;&lt;/div&gt;" style="rounded=1;whiteSpace=wrap;html=1;fontFamily=Garamond;fontSize=18;labelBackgroundColor=none;fontColor=#330066;fontStyle=0;strokeColor=#330066;" vertex="1" parent="1">
          <mxGeometry x="1020" y="250" width="81" height="30" as="geometry" />
        </mxCell>
        <mxCell id="DDGEUJCVJTAiT2eQpah1-60" value="&lt;div style=&quot;font-size: 18px; line-height: 21px; white-space-collapse: preserve;&quot;&gt;&lt;br style=&quot;font-size: 18px;&quot;&gt;&lt;/div&gt;" style="text;html=1;align=center;verticalAlign=middle;resizable=0;points=[];autosize=1;strokeColor=none;fillColor=none;fontFamily=Garamond;fontSize=18;labelBackgroundColor=none;fontColor=default;fontStyle=0;" vertex="1" parent="1">
          <mxGeometry x="594" y="670" width="20" height="30" as="geometry" />
        </mxCell>
        <mxCell id="DDGEUJCVJTAiT2eQpah1-61" value="&lt;div style=&quot;line-height: 21px; white-space: pre; font-size: 18px;&quot;&gt;&lt;div style=&quot;line-height: 21px; font-size: 18px;&quot;&gt;&lt;div style=&quot;line-height: 21px; font-size: 18px;&quot;&gt;&lt;span style=&quot;font-size: 18px;&quot;&gt;question_rewriter&lt;/span&gt;&lt;br style=&quot;font-size: 18px;&quot;&gt;&lt;/div&gt;&lt;/div&gt;&lt;/div&gt;" style="shape=process;whiteSpace=wrap;html=1;backgroundOutline=1;direction=south;fontFamily=Garamond;fontSize=18;fontColor=#004C99;verticalAlign=top;spacingTop=9;labelBackgroundColor=none;fontStyle=1;" vertex="1" parent="1">
          <mxGeometry x="494" y="700" width="355" height="120" as="geometry" />
        </mxCell>
        <mxCell id="DDGEUJCVJTAiT2eQpah1-62" value="&lt;div style=&quot;font-size: 18px; line-height: 21px; white-space: pre;&quot;&gt;&lt;span style=&quot;font-size: 18px;&quot;&gt;prompt&lt;/span&gt;&lt;/div&gt;" style="rounded=1;whiteSpace=wrap;html=1;verticalAlign=top;fontFamily=Garamond;fontSize=18;labelBackgroundColor=none;fontColor=default;fontStyle=0;strokeColor=#597A46;" vertex="1" parent="1">
          <mxGeometry x="514" y="740" width="175" height="50" as="geometry" />
        </mxCell>
        <mxCell id="DDGEUJCVJTAiT2eQpah1-63" style="edgeStyle=orthogonalEdgeStyle;rounded=0;orthogonalLoop=1;jettySize=auto;html=1;exitX=0.75;exitY=1;exitDx=0;exitDy=0;entryX=0.75;entryY=0;entryDx=0;entryDy=0;fontFamily=Garamond;fontSize=18;labelBackgroundColor=none;fontColor=default;fontStyle=0;" edge="1" parent="1" source="DDGEUJCVJTAiT2eQpah1-61" target="DDGEUJCVJTAiT2eQpah1-66">
          <mxGeometry relative="1" as="geometry" />
        </mxCell>
        <mxCell id="DDGEUJCVJTAiT2eQpah1-65" style="edgeStyle=orthogonalEdgeStyle;rounded=0;orthogonalLoop=1;jettySize=auto;html=1;exitX=0.25;exitY=0;exitDx=0;exitDy=0;entryX=0.25;entryY=1;entryDx=0;entryDy=0;fontFamily=Garamond;fontSize=18;labelBackgroundColor=none;fontColor=default;fontStyle=0;" edge="1" parent="1" source="DDGEUJCVJTAiT2eQpah1-66" target="DDGEUJCVJTAiT2eQpah1-61">
          <mxGeometry relative="1" as="geometry" />
        </mxCell>
        <mxCell id="DDGEUJCVJTAiT2eQpah1-66" value="stat" style="shape=process;whiteSpace=wrap;html=1;backgroundOutline=1;direction=south;fontFamily=Garamond;fontSize=18;fontColor=#003366;labelBackgroundColor=none;fontStyle=0;strokeColor=#003366;" vertex="1" parent="1">
          <mxGeometry x="324" y="700" width="60" height="120" as="geometry" />
        </mxCell>
        <mxCell id="DDGEUJCVJTAiT2eQpah1-67" value="&lt;div style=&quot;font-size: 18px; line-height: 21px; white-space-collapse: preserve;&quot;&gt;&lt;span style=&quot;font-size: 18px;&quot;&gt;question&lt;/span&gt;&lt;/div&gt;" style="text;html=1;align=center;verticalAlign=middle;resizable=0;points=[];autosize=1;strokeColor=none;fillColor=none;fontFamily=Garamond;fontSize=18;fontColor=default;labelBackgroundColor=none;fontStyle=0;" vertex="1" parent="1">
          <mxGeometry x="384" y="700" width="90" height="30" as="geometry" />
        </mxCell>
        <mxCell id="DDGEUJCVJTAiT2eQpah1-70" value="ollama" style="rounded=1;whiteSpace=wrap;html=1;verticalAlign=top;fontFamily=Garamond;fontSize=18;labelBackgroundColor=none;fontColor=#330066;fontStyle=0;strokeColor=#330066;" vertex="1" parent="1">
          <mxGeometry x="706" y="740" width="120" height="50" as="geometry" />
        </mxCell>
        <mxCell id="DDGEUJCVJTAiT2eQpah1-71" value="&lt;div style=&quot;font-size: 18px; line-height: 21px; white-space: pre;&quot;&gt;&lt;span style=&quot;font-size: 18px;&quot;&gt;mistral&lt;/span&gt;&lt;/div&gt;" style="rounded=1;whiteSpace=wrap;html=1;fontFamily=Garamond;fontSize=18;labelBackgroundColor=none;fontColor=#330066;fontStyle=0;strokeColor=#330066;" vertex="1" parent="1">
          <mxGeometry x="725" y="770" width="81" height="30" as="geometry" />
        </mxCell>
        <mxCell id="DDGEUJCVJTAiT2eQpah1-72" value="&lt;div style=&quot;font-size: 18px; line-height: 21px; white-space-collapse: preserve;&quot;&gt;&lt;div style=&quot;font-size: 18px;&quot;&gt;&lt;span style=&quot;font-size: 18px;&quot;&gt;optimized &lt;/span&gt;&lt;span style=&quot;font-size: 18px;&quot;&gt;for &lt;/span&gt;&lt;/div&gt;&lt;div style=&quot;font-size: 18px;&quot;&gt;&lt;span style=&quot;font-size: 18px;&quot;&gt;vectorstore retrieval&lt;/span&gt;&lt;/div&gt;&lt;/div&gt;" style="text;html=1;align=center;verticalAlign=middle;resizable=0;points=[];autosize=1;strokeColor=none;fillColor=none;fontFamily=Garamond;fontSize=18;labelBackgroundColor=#B9E0A5;fontColor=default;fontStyle=2;" vertex="1" parent="1">
          <mxGeometry x="506" y="760" width="190" height="60" as="geometry" />
        </mxCell>
        <mxCell id="DDGEUJCVJTAiT2eQpah1-73" value="&lt;div style=&quot;font-size: 18px; line-height: 21px; white-space-collapse: preserve;&quot;&gt;&lt;br style=&quot;font-size: 18px;&quot;&gt;&lt;/div&gt;" style="text;html=1;align=center;verticalAlign=middle;resizable=0;points=[];autosize=1;strokeColor=none;fillColor=none;fontFamily=Garamond;fontSize=18;labelBackgroundColor=none;fontColor=default;fontStyle=0;" vertex="1" parent="1">
          <mxGeometry x="899" y="721.5" width="20" height="30" as="geometry" />
        </mxCell>
        <mxCell id="DDGEUJCVJTAiT2eQpah1-92" style="edgeStyle=orthogonalEdgeStyle;rounded=0;orthogonalLoop=1;jettySize=auto;html=1;exitX=0;exitY=0.75;exitDx=0;exitDy=0;entryX=0.75;entryY=0;entryDx=0;entryDy=0;fontColor=default;fontFamily=Garamond;fontSize=18;" edge="1" parent="1" source="DDGEUJCVJTAiT2eQpah1-74" target="DDGEUJCVJTAiT2eQpah1-90">
          <mxGeometry relative="1" as="geometry" />
        </mxCell>
        <mxCell id="DDGEUJCVJTAiT2eQpah1-74" value="&lt;span style=&quot;font-size: 18px; white-space: pre;&quot;&gt;Tavily &lt;/span&gt;&lt;div style=&quot;font-size: 18px;&quot;&gt;&lt;span style=&quot;font-size: 18px; white-space: pre;&quot;&gt;Search&lt;/span&gt;&lt;/div&gt;" style="rounded=1;whiteSpace=wrap;html=1;fontFamily=Garamond;fontSize=18;labelBackgroundColor=none;fontColor=#004C99;fontStyle=1;" vertex="1" parent="1">
          <mxGeometry x="1101" y="692" width="88" height="120" as="geometry" />
        </mxCell>
        <mxCell id="DDGEUJCVJTAiT2eQpah1-77" style="edgeStyle=orthogonalEdgeStyle;rounded=0;orthogonalLoop=1;jettySize=auto;html=1;exitX=0;exitY=0;exitDx=0;exitDy=30;exitPerimeter=0;entryX=0;entryY=0.5;entryDx=0;entryDy=0;entryPerimeter=0;fontFamily=Garamond;fontSize=18;labelBackgroundColor=none;fontColor=default;fontStyle=0;" edge="1" parent="1" source="DDGEUJCVJTAiT2eQpah1-31" target="DDGEUJCVJTAiT2eQpah1-32">
          <mxGeometry relative="1" as="geometry" />
        </mxCell>
        <mxCell id="DDGEUJCVJTAiT2eQpah1-82" value="tiktoken" style="text;html=1;align=right;verticalAlign=middle;resizable=0;points=[];autosize=1;strokeColor=none;fillColor=none;fontFamily=Garamond;fontSize=18;fontColor=default;" vertex="1" parent="1">
          <mxGeometry x="-153" y="467" width="90" height="40" as="geometry" />
        </mxCell>
        <mxCell id="DDGEUJCVJTAiT2eQpah1-87" value="&lt;span style=&quot;font-size: 18px; font-style: normal; font-variant-ligatures: normal; font-variant-caps: normal; letter-spacing: normal; orphans: 2; text-indent: 0px; text-transform: none; widows: 2; word-spacing: 0px; -webkit-text-stroke-width: 0px; white-space: pre; background-color: rgb(251, 251, 251); text-decoration-thickness: initial; text-decoration-style: initial; text-decoration-color: initial; float: none; display: inline !important;&quot;&gt;(&lt;/span&gt;&lt;span style=&quot;font-size: 18px; white-space: pre;&quot;&gt;entry_point)&lt;/span&gt;" style="text;whiteSpace=wrap;html=1;align=center;fontColor=#FF0080;fontFamily=Garamond;fontSize=18;fontStyle=1" vertex="1" parent="1">
          <mxGeometry x="110" y="532.5" width="120" height="40" as="geometry" />
        </mxCell>
        <mxCell id="DDGEUJCVJTAiT2eQpah1-91" style="edgeStyle=orthogonalEdgeStyle;rounded=0;orthogonalLoop=1;jettySize=auto;html=1;exitX=0.25;exitY=0;exitDx=0;exitDy=0;entryX=0;entryY=0.25;entryDx=0;entryDy=0;fontColor=default;fontFamily=Garamond;fontSize=18;" edge="1" parent="1" source="DDGEUJCVJTAiT2eQpah1-90" target="DDGEUJCVJTAiT2eQpah1-74">
          <mxGeometry relative="1" as="geometry" />
        </mxCell>
        <mxCell id="DDGEUJCVJTAiT2eQpah1-90" value="stat" style="shape=process;whiteSpace=wrap;html=1;backgroundOutline=1;direction=south;fontFamily=Garamond;fontSize=18;fontColor=#003366;labelBackgroundColor=none;fontStyle=0;strokeColor=#003366;" vertex="1" parent="1">
          <mxGeometry x="901" y="692" width="60" height="120" as="geometry" />
        </mxCell>
        <mxCell id="DDGEUJCVJTAiT2eQpah1-93" value="&lt;div style=&quot;font-size: 18px; line-height: 21px; white-space-collapse: preserve;&quot;&gt;&lt;span style=&quot;font-size: 18px;&quot;&gt;question&lt;/span&gt;&lt;/div&gt;" style="text;html=1;align=center;verticalAlign=middle;resizable=0;points=[];autosize=1;strokeColor=none;fillColor=none;fontFamily=Garamond;fontSize=18;fontColor=default;labelBackgroundColor=none;fontStyle=0;" vertex="1" parent="1">
          <mxGeometry x="988" y="692" width="90" height="30" as="geometry" />
        </mxCell>
        <mxCell id="DDGEUJCVJTAiT2eQpah1-94" value="&lt;div style=&quot;font-size: 18px; line-height: 21px; white-space-collapse: preserve;&quot;&gt;&lt;span style=&quot;font-size: 18px;&quot;&gt;documents&lt;/span&gt;&lt;/div&gt;" style="text;html=1;align=center;verticalAlign=middle;resizable=0;points=[];autosize=1;strokeColor=none;fillColor=none;fontFamily=Garamond;fontSize=18;fontColor=default;labelBackgroundColor=none;fontStyle=0;" vertex="1" parent="1">
          <mxGeometry x="973" y="791.5" width="120" height="30" as="geometry" />
        </mxCell>
        <mxCell id="DDGEUJCVJTAiT2eQpah1-106" style="edgeStyle=orthogonalEdgeStyle;rounded=0;orthogonalLoop=1;jettySize=auto;html=1;exitX=0.25;exitY=0;exitDx=0;exitDy=0;entryX=0.25;entryY=1;entryDx=0;entryDy=0;fontColor=default;fontFamily=Garamond;fontSize=18;" edge="1" parent="1" source="DDGEUJCVJTAiT2eQpah1-100" target="DDGEUJCVJTAiT2eQpah1-105">
          <mxGeometry relative="1" as="geometry" />
        </mxCell>
        <mxCell id="DDGEUJCVJTAiT2eQpah1-100" value="stat" style="shape=process;whiteSpace=wrap;html=1;backgroundOutline=1;direction=south;fontFamily=Garamond;fontSize=18;fontColor=#003366;labelBackgroundColor=none;fontStyle=0;strokeColor=#003366;" vertex="1" parent="1">
          <mxGeometry x="123.5" y="170" width="60" height="120" as="geometry" />
        </mxCell>
        <mxCell id="DDGEUJCVJTAiT2eQpah1-101" value="&lt;span style=&quot;font-size: 18px; white-space-collapse: preserve; background-color: rgb(255, 255, 255);&quot;&gt;&quot;transform_query&quot;&lt;/span&gt;&lt;div&gt;&lt;span style=&quot;white-space-collapse: preserve; background-color: rgb(255, 255, 255);&quot;&gt;|&lt;/span&gt;&lt;/div&gt;&lt;div&gt;&lt;span style=&quot;white-space-collapse: preserve; background-color: rgb(255, 255, 255);&quot;&gt;&quot;generate&quot;&lt;/span&gt;&lt;span style=&quot;font-size: 18px; white-space-collapse: preserve; background-color: rgb(255, 255, 255);&quot;&gt;&lt;br&gt;&lt;/span&gt;&lt;/div&gt;" style="text;html=1;align=left;verticalAlign=middle;resizable=0;points=[];autosize=1;strokeColor=none;fillColor=none;fontColor=default;fontFamily=Garamond;fontSize=18;" vertex="1" parent="1">
          <mxGeometry x="205" y="223" width="180" height="80" as="geometry" />
        </mxCell>
        <mxCell id="DDGEUJCVJTAiT2eQpah1-103" value="&lt;span style=&quot;font-size: 18px; white-space-collapse: preserve; background-color: rgb(255, 255, 255);&quot;&gt; &lt;/span&gt;&lt;span style=&quot;font-size: 18px; white-space-collapse: preserve; background-color: rgb(255, 255, 255);&quot;&gt;&quot;Yes&quot;?&lt;/span&gt;" style="text;html=1;align=left;verticalAlign=middle;resizable=0;points=[];autosize=1;strokeColor=none;fillColor=none;fontColor=default;fontFamily=Garamond;fontSize=18;" vertex="1" parent="1">
          <mxGeometry x="430" y="243" width="90" height="40" as="geometry" />
        </mxCell>
        <mxCell id="DDGEUJCVJTAiT2eQpah1-104" value="&lt;div style=&quot;background-color: rgb(255, 255, 255); font-size: 18px; line-height: 21px; white-space-collapse: preserve;&quot;&gt;&lt;br style=&quot;font-size: 18px;&quot;&gt;&lt;/div&gt;" style="text;html=1;align=center;verticalAlign=middle;resizable=0;points=[];autosize=1;strokeColor=none;fillColor=none;fontColor=default;fontFamily=Garamond;fontSize=18;" vertex="1" parent="1">
          <mxGeometry x="243.5" y="212" width="20" height="30" as="geometry" />
        </mxCell>
        <mxCell id="DDGEUJCVJTAiT2eQpah1-107" style="edgeStyle=orthogonalEdgeStyle;rounded=0;orthogonalLoop=1;jettySize=auto;html=1;exitX=0.75;exitY=1;exitDx=0;exitDy=0;entryX=0.75;entryY=0;entryDx=0;entryDy=0;fontColor=default;fontFamily=Garamond;fontSize=18;" edge="1" parent="1" source="DDGEUJCVJTAiT2eQpah1-105" target="DDGEUJCVJTAiT2eQpah1-100">
          <mxGeometry relative="1" as="geometry" />
        </mxCell>
        <mxCell id="DDGEUJCVJTAiT2eQpah1-108" value="&lt;span style=&quot;font-size: 18px; white-space-collapse: preserve; background-color: rgb(255, 255, 255);&quot;&gt;web_search&lt;/span&gt;" style="text;html=1;align=center;verticalAlign=middle;resizable=0;points=[];autosize=1;strokeColor=none;fillColor=none;fontColor=default;fontFamily=Garamond;fontSize=18;" vertex="1" parent="1">
          <mxGeometry x="203.5" y="157.5" width="120" height="40" as="geometry" />
        </mxCell>
        <mxCell id="DDGEUJCVJTAiT2eQpah1-112" value="&lt;div style=&quot;color: rgb(59, 59, 59); background-color: rgb(255, 255, 255); font-family: Menlo, Monaco, &amp;quot;Courier New&amp;quot;, monospace; font-size: 16px; line-height: 21px; white-space-collapse: preserve;&quot;&gt;&lt;span style=&quot;color: rgb(0, 16, 128); font-size: 16px;&quot;&gt;app&lt;/span&gt; &lt;span style=&quot;color: rgb(0, 0, 0); font-size: 16px;&quot;&gt;=&lt;/span&gt; &lt;span style=&quot;color: rgb(0, 16, 128); font-size: 16px;&quot;&gt;workflow&lt;/span&gt;.compile()&lt;/div&gt;" style="text;html=1;align=left;verticalAlign=middle;resizable=0;points=[];autosize=1;strokeColor=none;fillColor=none;fontSize=16;" vertex="1" parent="1">
          <mxGeometry x="-258" y="537.5" width="250" height="30" as="geometry" />
        </mxCell>
        <mxCell id="DDGEUJCVJTAiT2eQpah1-113" value="&lt;div style=&quot;color: rgb(59, 59, 59); background-color: rgb(255, 255, 255); font-family: Menlo, Monaco, &amp;quot;Courier New&amp;quot;, monospace; font-weight: normal; font-size: 16px; line-height: 21px; white-space: pre;&quot;&gt;&lt;div style=&quot;font-size: 16px;&quot;&gt;&lt;span style=&quot;color: rgb(175, 0, 219); font-size: 16px;&quot;&gt;for&lt;/span&gt;&lt;span style=&quot;color: rgb(59, 59, 59); font-size: 16px;&quot;&gt; &lt;/span&gt;&lt;span style=&quot;color: rgb(0, 16, 128); font-size: 16px;&quot;&gt;output&lt;/span&gt;&lt;span style=&quot;color: rgb(59, 59, 59); font-size: 16px;&quot;&gt; &lt;/span&gt;&lt;span style=&quot;color: rgb(0, 0, 255); font-size: 16px;&quot;&gt;in&lt;/span&gt;&lt;span style=&quot;color: rgb(59, 59, 59); font-size: 16px;&quot;&gt; &lt;/span&gt;&lt;span style=&quot;color: rgb(0, 16, 128); font-size: 16px;&quot;&gt;app&lt;/span&gt;&lt;span style=&quot;color: rgb(59, 59, 59); font-size: 16px;&quot;&gt;.stream(&lt;/span&gt;&lt;span style=&quot;color: rgb(0, 16, 128); font-size: 16px;&quot;&gt;inputs&lt;/span&gt;&lt;span style=&quot;color: rgb(59, 59, 59); font-size: 16px;&quot;&gt;):&lt;/span&gt;&lt;/div&gt;&lt;div style=&quot;font-size: 16px;&quot;&gt;&lt;span style=&quot;color: rgb(59, 59, 59); font-size: 16px;&quot;&gt;    &lt;/span&gt;&lt;span style=&quot;color: rgb(175, 0, 219); font-size: 16px;&quot;&gt;for&lt;/span&gt;&lt;span style=&quot;color: rgb(59, 59, 59); font-size: 16px;&quot;&gt; &lt;/span&gt;&lt;span style=&quot;color: rgb(0, 16, 128); font-size: 16px;&quot;&gt;key&lt;/span&gt;&lt;span style=&quot;color: rgb(59, 59, 59); font-size: 16px;&quot;&gt;, &lt;/span&gt;&lt;span style=&quot;color: rgb(0, 16, 128); font-size: 16px;&quot;&gt;value&lt;/span&gt;&lt;span style=&quot;color: rgb(59, 59, 59); font-size: 16px;&quot;&gt; &lt;/span&gt;&lt;span style=&quot;color: rgb(0, 0, 255); font-size: 16px;&quot;&gt;in&lt;/span&gt;&lt;span style=&quot;color: rgb(59, 59, 59); font-size: 16px;&quot;&gt; &lt;/span&gt;&lt;span style=&quot;color: rgb(0, 16, 128); font-size: 16px;&quot;&gt;output&lt;/span&gt;&lt;span style=&quot;color: rgb(59, 59, 59); font-size: 16px;&quot;&gt;.items():&lt;/span&gt;&lt;/div&gt;&lt;/div&gt;" style="text;whiteSpace=wrap;html=1;align=left;fontSize=16;" vertex="1" parent="1">
          <mxGeometry x="-258" y="572.5" width="350" height="70" as="geometry" />
        </mxCell>
      </root>
    </mxGraphModel>
  </diagram>
</mxfile>
